<svg width="276" height="111" xmlns="http://www.w3.org/2000/svg"><path d="M129.725 15.998l.466-1.94-1.481-1.385-3.795 2.123-2.588-.922-1.478-4.34-1.853.186.184 2.121-.463.464-1.293-1.94.368-1.753-.832-3.139-2.957-2.588-2.13.093L110.21.394l-1.575 1.015 2.22 2.401v.925l6.105 9.139-.277 3.139-.924 3.23-2.5 1.94.093 1.386 3.704 1.753.925 1.663-2.132 4.154.464 1.015 1.479-.09.65.828 1.849-1.015 2.865-4.708 1.668-3.784-.554-.832.829-1.94 1.759-.093.183 1.015 1.389-.738-.181-2.03 1.106-.648.37-2.121M91.522 5.75v14.863l4.626 4.616h7.771l4.623-4.616V5.75l-4.623-4.618h-7.771L91.522 5.75zm7.123 3.693c0-1.202.464-1.94 1.389-1.94.922 0 1.385.738 1.385 1.94v7.477c0 1.199-.463 1.94-1.385 1.94-.925 0-1.389-.741-1.389-1.94V9.443zm4.164 45.516l1.292-.37v-1.293l1.482-3.507 1.295-3.97 1.852-1.386 1.94.371.834-.277.28-.925-1.114-1.386.277-.738 1.852-2.307.277-1.57 1.018-.554 1.293-2.769-.278-.738.187-1.015-.187-.371.187-1.108-1.388-.645-2.22 1.57-.094-.184.19-1.109-.651-.37-.554.186-.093-.277.277-.647.277-.461-.277-.555-2.497 1.94-1.111 3.968-1.572.925-.832 3.784-6.662 6.461-2.22.648-3.051 4.341-2.036 4.708 1.202 1.57 2.313-.554.554.831h1.295l.094.831 2.313.091 2.22-1.199 2.036-1.94m32.005-2.124V37.971l-4.624-4.615h-7.771l-4.626 4.615v14.864l4.626 4.615h7.771l4.624-4.615zm-7.124-3.693c0 1.201-.461 1.94-1.385 1.94-.928 0-1.389-.739-1.389-1.94v-7.477c0-1.202.461-1.94 1.389-1.94.924 0 1.385.738 1.385 1.94v7.477zm-32.747 9.219l-.971.267.294 1.285-1.466 2 .528.31 3.144-.811.501-1.298-.394-.388-1.636-1.365m-89.395-.869h12.565V1.133h-6.56l-4.249 4.25H.097V16.47h5.451v41.022m34.739-12.279c0 1.321-.85 2.208-1.958 2.208h-.887c-1.109 0-1.959-.887-1.959-2.208V13.412c0-1.322.85-2.208 1.959-2.208h.887c1.108 0 1.958.886 1.958 2.208v31.801zm-9.423-44.08l-7.946 7.945v40.468l7.946 7.946h14.043l7.946-7.946V9.078l-7.946-7.945H30.864zm39.358 12.279c0-1.322.85-2.208 1.959-2.208h.887c1.109 0 1.959.886 1.959 2.208v31.801c0 1.321-.85 2.208-1.959 2.208h-.887c-1.109 0-1.959-.887-1.959-2.208V13.412zm9.425 44.08l7.945-7.946V9.078l-7.945-7.945H65.603l-7.946 7.945v40.468l7.946 7.946h14.044zm86.666-32.069c0 1.321-.85 2.042-1.958 2.042h-2.569V11.204h2.569c1.108 0 1.958.72 1.958 2.041v12.178zm-17.092-24.29v56.359h12.565V37.535h9.221l7.853-7.853V8.986l-7.853-7.853h-21.786zm33.577 0v48.413l7.945 7.946h14.044l7.946-7.946V1.133h-12.566v44.08c0 1.321-.85 2.208-1.958 2.208h-.887c-1.109 0-1.959-.887-1.959-2.208V1.133h-12.565m51.832 21.98c0 1.321-.85 2.042-1.959 2.042h-2.568V11.204h2.568c1.109 0 1.959.72 1.959 2.041v9.868zm12.546-14.127l-7.853-7.853h-21.786v56.359h12.566v-21.62h2.55c1.108 0 1.958.721 1.958 2.042v14.127l.665 5.451h12.566l-.666-6.19v-15.43l-5.543-5.543 5.543-5.544V8.986zm4.769 48.506h23.708v-10.81H264.51V34.394h10.219v-10.81H264.51V11.943h11.143V1.133h-23.708v56.359M19.548 84.226h-.441l-4.189-18.153h-9.37v44.83h9.296V91.575h.441l5.071 19.328h8.562v-44.83h-9.37v18.153m13.191 26.677h18.858v-8.599h-8.863V92.53h8.128v-8.598h-8.128v-9.26h8.863v-8.599H32.739v44.83m67.788-36.231h9.466l-9.392 28.367v7.864h20.342v-8.599h-9.246l9.246-28.147v-8.084h-20.416v8.599m23.571 36.231h18.858v-8.599h-8.864V92.53h8.129v-8.598h-8.129v-9.26h8.864v-8.599h-18.858v44.83m50.755-44.83v44.83h17.858v-8.599h-8.01V66.073h-9.848m63.857 18.153h-.441l-4.188-18.153h-9.371v44.83h9.297V91.575h.441l5.071 19.328h8.561v-44.83h-9.37v18.153m23.26-10.142h2.131c.882 0 1.558.573 1.558 1.624v25.56c0 1.051-.676 1.624-1.558 1.624h-2.131V74.084zm-9.995 36.819h17.359l6.32-6.321V72.393l-6.32-6.32h-17.359v44.83zM78.298 86.775h-.442L75.74 66.073h-7.217l-2.138 20.702h-.441l-2.293-20.702h-9.414l5.695 44.83h9.054l2.602-19.394h.441l2.499 19.394h9.105l5.673-44.83h-8.767l-2.241 20.702m78.391 8.849l1.754-14.632h.442l1.79 14.632h-3.986zm-4.272-29.551l-7.128 44.83h9.568l.866-7.224h5.937l.884 7.224h9.936l-7.128-44.83h-12.935zm53.98 29.551l1.755-14.632h.441l1.79 14.632h-3.986zm-4.271-29.551l-7.129 44.83h9.569l.866-7.224h5.937l.884 7.224h9.935l-7.128-44.83h-12.934z" fill="#FFFFFE" fill-rule="evenodd"/></svg>