<svg xmlns="http://www.w3.org/2000/svg" width="22" height="32" viewBox="0 0 22 32"><title>nz-map</title><path fill="#fff" d="M13.298 16.171c-.213-.085-.384-.171-.555.043-.085.085-.213.213-.384.171h-.043l-.384.256c-.043.043-.128.043-.171.043-.043-.043-.043-.128-.043-.171.085-.256-.043-.555-.384-.555-.085 0-.128-.043-.128-.128.043-.128.043-.256.085-.384s-.043-.213-.085-.299c-.128.043-.256.085-.341.171-.213.128-.384.213-.555.341-.085.043-.171.085-.256.171-.171.213-.299.427-.341.683 0 .043 0 .085-.043.128l-.128.384a1.897 1.897 0 0 1-.256.683c-.043.043-.043.128-.043.171s0 .128-.043.128c-.171.128-.341.213-.512.299a.616.616 0 0 0-.384.469c-.085.299-.128.597-.213.896a5.776 5.776 0 0 1-.213.811c0 .043 0 .128-.043.171-.171.043-.256.171-.341.299a1.265 1.265 0 0 1-.299.213 2.01 2.01 0 0 0-.427.427c-.171.171-.384.299-.555.469l-.384.384a2.33 2.33 0 0 0-.384.299 6.518 6.518 0 0 1-.555.512 4.131 4.131 0 0 0-.469.427c-.085.085-.128.171-.256.213a.601.601 0 0 1-.256.085c-.171 0-.299.085-.469.128-.085.043-.171.043-.256.043h-.171s-.043.085-.085.085a1.15 1.15 0 0 0-.469.64c-.043.085-.085.171-.128.213-.128.043-.171.171-.256.256-.085.128-.213.256-.256.427 0 0 0 .043-.043.043l-.256.256c-.128.128-.128.299-.299.384-.043 0-.043.085-.043.128.043.128-.043.256-.085.341-.085.171-.256.299-.256.512 0 0 0 .043-.043.043-.171.085-.213.256-.256.384a3.206 3.206 0 0 0-.384.768c-.043.128-.085.256.043.427s.256.384.384.555c.043.085.128.171.256.128.299-.085.597-.128.896-.213.043 0 .128-.043.171-.043s.085 0 .085.043l.128.256c.043.128.128.171.256.171s.213 0 .341-.043c.128 0 .171.043.171.128.043.085.043.171.085.256s.085.128.171.085.299-.043.469 0c.171 0 .299.043.469.085h.043c.213-.085.427-.213.64-.341.171-.085.299-.256.512-.213.043 0 .085 0 .085-.043.085-.085.213-.171.299-.299.085-.171.256-.213.384-.341l.256-.256c.043-.043.128-.128.213-.128.128-.043.299-.085.427-.085v-.043c0-.085-.085-.128.043-.171 0 .043 0 .085.043.128h.043c0-.043-.043-.085-.043-.128s-.043-.043 0-.085c.043-.085.085-.213.128-.299 0-.085 0-.128.043-.213h-.043c.085-.085.128-.171.213-.299s.128-.256.213-.384c.085-.171.171-.299.256-.469.171-.341.299-.683.469-1.067l.256-.768a.78.78 0 0 0 .085-.299c0-.171.085-.341.128-.469 0-.043.043-.128.128-.171.171-.085.213-.341.427-.427v-.043c.085-.043.128-.128.213-.171a.325.325 0 0 1 .213-.085h.171l.384.128.512.128c.128 0 .256.043.384 0a.394.394 0 0 0 .299-.469c0-.128-.043-.256-.171-.299-.128 0-.128-.085-.128-.171-.043-.085-.043-.171-.128-.213 0 0-.043-.043-.043-.085.043-.171.128-.341.171-.469.128-.213.299-.427.469-.597.085-.085.171-.128.213-.213a.386.386 0 0 1 .256-.256c.043-.043.128-.085.085-.213v-.085c.043-.128.085-.299.085-.427v-.213c.043-.085.043-.171.171-.171s.213-.043.341-.043c0 0 .043 0 .043-.043.128-.171.213-.341.341-.512.085-.128.128-.256.256-.384a.858.858 0 0 0 .171-.555c.043-.256.043-.555.043-.811v-.043c.043-.213.085-.427.085-.64v-.043a1.161 1.161 0 0 0-.469-.427zm8.874-8.704c-.043-.085-.171-.085-.213-.171-.043-.128-.171-.128-.299-.171h-.043c-.085-.128-.256-.128-.341-.085-.171.043-.427 0-.555.213h-.043c-.128.085-.256.128-.341.213-.085.128-.256.128-.384.213-.085.085-.213.128-.341.213-.085.043-.128.085-.213.085-.171.043-.341.043-.512-.085a.601.601 0 0 0-.256-.085c-.213-.043-.384-.128-.555-.213-.085-.043-.128-.128-.171-.213a11.158 11.158 0 0 1-.128-.555c-.128-.469-.213-.939-.341-1.408-.043-.256-.171-.341-.427-.299-.171.043-.341.043-.512.085-.085 0-.128.043-.128.128v.683c.043.256-.085.384-.299.512l-.043-.043c-.171-.256-.299-.512-.469-.811-.043-.085-.085-.171-.043-.213 0-.171.085-.299.085-.469.043-.171.085-.341.043-.512-.043-.299-.085-.555-.128-.853-.043-.171-.043-.299-.085-.469-.043-.256-.128-.469-.341-.64a2.965 2.965 0 0 1-.427-.341c-.128-.085-.213-.213-.299-.341a.921.921 0 0 0-.171-.213c-.085-.085-.171-.171-.299-.213-.171-.085-.341-.043-.555-.043h-.64c-.043 0-.043-.128-.043-.171s0-.043-.043-.085c.043-.085 0-.256-.128-.384-.171-.213-.213-.469-.427-.64-.085-.085-.299-.085-.384.043-.043.128-.128.171-.256.213-.171.085-.213.171-.085.341.085.085.171.213.256.299.171.128.299.299.469.469.085.085.213.171.213.299.043.128.043.299.043.427v.171c.085.171.171.341.256.469.171.299.427.555.512.896 0 .043.043.043.043.085.128.213.299.384.384.64.043.128.128.256.171.341s.128.128.171.213l.043.043c.085.427.384.725.555 1.109.043.128.128.256.213.384s.171.299.256.427c.171.213.256.469.171.768l-.128.896c-.043.213-.085.469-.171.683-.128.299-.256.64-.384.939-.043.128-.043.299-.256.341 0 0-.043.043-.043.085s-.043.085-.085.085c-.171.085-.341.213-.512.299l-.256.128c-.128.085-.213.213-.341.299a.321.321 0 0 0-.085.171c0 .085-.043.171 0 .256 0 .128 0 .299.043.427.085.128.256.256.384.384.085.043.171.085.299.128.085.043.171.085.299.171.171.128.427.128.597.299.085.085.256.128.299.299.213.128.299.341.384.555.043.043.043.171.043.213a2.025 2.025 0 0 1-.213.427c-.085.171-.256.341-.299.555 0 0 0 .043-.043.043l-.256.384c-.043.043-.043.128-.085.171 0 .043-.043.085-.043.128s-.043.043-.043.043a.816.816 0 0 0 0 .768c.043.128.128.213.256.171.128 0 .213 0 .341-.043.171 0 .341 0 .427.171.043.128.128.171.299.128.256-.085.469-.171.725-.299.085-.043.171-.085.171-.128.128-.299.384-.427.469-.725.128-.171.213-.299.341-.469s.256-.384.384-.555c.085-.085.171-.213.213-.299.128-.171.213-.384.341-.597s.256-.469.384-.683c.128-.213.213-.469.341-.683.043-.085.043-.171 0-.299s-.128-.256-.128-.384c.043-.341.256-.64.427-.939 0-.043.085-.043.128-.043.213 0 .469 0 .683.043.171 0 .256.085.171.213.043.043.085.043.085.085.043.128.128.128.213.128.085-.043.171-.043.256-.085.171-.085.256-.213.213-.384v-.469c0-.256.085-.427.341-.555.213-.085.341-.213.384-.427.043-.256.085-.469.171-.725.128-.341.256-.725.384-1.024.128-.213.085-.384-.043-.555zM2.119 30.763c-.085-.043-.299-.043-.341 0s0 .128 0 .213c0 .043.043.085.043.085v.213l-.384.512c-.043.043-.085.085-.043.128-.043.043.043.085.043.085h.043l1.024-.256c.043 0 .043-.043.085-.085.043-.085.085-.213.128-.299 0-.043 0-.085-.043-.128-.171-.171-.384-.299-.555-.469z"/></svg>